nColumns=28
nRows=26
DataType=double
version=3
OpenSimVersion=4.1
endheader
time	ground_force_1_vx	ground_force_1_vy	ground_force_1_vz	ground_force_1_px	ground_force_1_py	ground_force_1_pz	ground_force_1_mx	ground_force_1_my	ground_force_1_mz	ground_force_2_vx	ground_force_2_vy	ground_force_2_vz	ground_force_2_px	ground_force_2_py	ground_force_2_pz	ground_force_2_mx	ground_force_2_my	ground_force_2_mz	ground_force_3_vx	ground_force_3_vy	ground_force_3_vz	ground_force_3_px	ground_force_3_py	ground_force_3_pz	ground_force_3_mx	ground_force_3_my	ground_force_3_mz
0	-7.42653	436.713	-52.4957	-0.228741	0.006	-0.42842	0	-8.30504	0	-4.57629	476.978	47.8342	-0.22915	0.006	-0.879573	0	6.57645	0	0	0	0	0	0	0	0	0	0
0.01	-7.25631	433.154	-51.6597	-0.228848	0.006	-0.42824	0	-8.44129	0	-4.77457	476.606	47.7893	-0.229084	0.006	-0.87968	0	6.61648	0	0	0	0	0	0	0	0	0	0
0.02	-7.06324	429.021	-50.7424	-0.228992	0.006	-0.428045	0	-8.58421	0	-4.95247	476.194	47.7489	-0.229049	0.006	-0.879806	0	6.66549	0	0	0	0	0	0	0	0	0	0
0.03	-6.85305	424.343	-49.762	-0.229173	0.006	-0.427842	0	-8.72797	0	-5.09809	475.742	47.7166	-0.229058	0.006	-0.879948	0	6.72302	0	0	0	0	0	0	0	0	0	0
0.04	-6.63392	419.153	-48.7351	-0.229391	0.006	-0.427639	0	-8.86654	0	-5.20315	475.242	47.6962	-0.229117	0.006	-0.880104	0	6.7881	0	0	0	0	0	0	0	0	0	0
0.05	-6.41609	413.494	-47.6743	-0.229642	0.006	-0.427447	0	-8.99418	0	-5.2634	474.676	47.692	-0.229232	0.006	-0.88027	0	6.85949	0	0	0	0	0	0	0	0	0	0
0.06	-6.21309	407.419	-46.5895	-0.229921	0.006	-0.427274	0	-9.10587	0	-5.2783	474.011	47.708	-0.229405	0.006	-0.880442	0	6.93583	0	0	0	0	0	0	0	0	0	0
0.07	-6.04074	400.986	-45.488	-0.230225	0.006	-0.427132	0	-9.19788	0	-5.2496	473.202	47.7467	-0.229634	0.006	-0.880618	0	7.01594	0	0	0	0	0	0	0	0	0	0
0.08	-5.91471	394.267	-44.3773	-0.230554	0.006	-0.42703	0	-9.26811	0	-5.17915	472.193	47.8079	-0.229913	0.006	-0.880795	0	7.09918	0	0	0	0	0	0	0	0	0	0
0.09	-5.84614	387.345	-43.267	-0.230914	0.006	-0.426975	0	-9.3162	0	-5.06886	470.919	47.8891	-0.230234	0.006	-0.880971	0	7.18548	0	0	0	0	0	0	0	0	0	0
0.1	-5.83684	380.32	-42.1716	-0.231317	0.006	-0.426977	0	-9.34318	0	-4.92423	469.315	47.9876	-0.230583	0.006	-0.881149	0	7.27532	0	0	0	0	0	0	0	0	0	0
0.11	-5.87741	373.306	-41.111	-0.231783	0.006	-0.427038	0	-9.35127	0	-4.75679	467.325	48.1039	-0.230946	0.006	-0.881331	0	7.36966	0	0	0	0	0	0	0	0	0	0
0.12	-5.94944	366.433	-40.1105	-0.232334	0.006	-0.427162	0	-9.34369	0	-4.58191	464.91	48.2419	-0.231306	0.006	-0.881521	0	7.46983	0	0	0	0	0	0	0	0	0	0
0.13	-6.02825	359.836	-39.1971	-0.232996	0.006	-0.427347	0	-9.32459	0	-4.41381	462.054	48.4072	-0.23165	0.006	-0.881724	0	7.57736	0	0	0	0	0	0	0	0	0	0
0.14	-6.08591	353.651	-38.3961	-0.233794	0.006	-0.427591	0	-9.29877	0	-4.25956	458.77	48.6053	-0.231968	0.006	-0.881947	0	7.69379	0	0	0	0	0	0	0	0	0	0
0.15	-6.09594	348.003	-37.7286	-0.234747	0.006	-0.42789	0	-9.27151	0	-4.11627	455.095	48.8399	-0.232255	0.006	-0.882193	0	7.82035	0	0	0	0	0	0	0	0	0	0
0.16	-6.03928	343.001	-37.2115	-0.235867	0.006	-0.428238	0	-9.24834	0	-3.97485	451.095	49.1143	-0.232511	0.006	-0.882466	0	7.95773	0	0	0	0	0	0	0	0	0	0
0.17	-5.90806	338.739	-36.8558	-0.237153	0.006	-0.428627	0	-9.23485	0	-3.82471	446.863	49.4323	-0.232736	0.006	-0.882769	0	8.10599	0	0	0	0	0	0	0	0	0	0
0.18	-5.70455	335.29	-36.6664	-0.238596	0.006	-0.429049	0	-9.23659	0	-3.65568	442.513	49.7974	-0.232935	0.006	-0.883102	0	8.26444	0	0	0	0	0	0	0	0	0	0
0.19	-5.43941	332.716	-36.6408	-0.240173	0.006	-0.429497	0	-9.25876	0	-3.45925	438.181	50.2105	-0.233111	0.006	-0.883463	0	8.43175	0	0	0	0	0	0	0	0	0	0
0.2	-5.13004	331.063	-36.7685	-0.241853	0.006	-0.429962	0	-9.30611	0	-3.22869	434.027	50.6678	-0.233271	0.006	-0.883848	0	8.6063	0	0	0	0	0	0	0	0	0	0
0.21	-4.79867	330.366	-37.0334	-0.243596	0.006	-0.430437	0	-9.38265	0	-2.95436	430.215	51.1563	-0.233424	0.006	-0.884248	0	8.78636	0	0	0	0	0	0	0	0	0	0
0.22	-4.47184	330.643	-37.4178	-0.245357	0.006	-0.430912	0	-9.4914	0	-2.62195	426.899	51.6526	-0.233583	0.006	-0.884653	0	8.97036	0	0	0	0	0	0	0	0	0	0
0.23	-4.1776	331.898	-37.9058	-0.24709	0.006	-0.431379	0	-9.63421	0	-2.21837	424.202	52.128	-0.23376	0.006	-0.885049	0	9.15688	0	0	0	0	0	0	0	0	0	0
0.24	-3.93924	334.102	-38.4815	-0.248752	0.006	-0.431827	0	-9.8116	0	-1.73788	422.21	52.5546	-0.233968	0.006	-0.885421	0	9.34463	0	0	0	0	0	0	0	0	0	0
0.25	-3.76981	337.184	-39.1253	-0.250307	0.006	-0.43225	0	-10.0225	0	-1.1846	420.965	52.9088	-0.234219	0.006	-0.885757	0	9.53228	0	0	0	0	0	0	0	0	0	0
